<svg id="Layer_1" data-name="Layer 1" xmlns="http://www.w3.org/2000/svg" viewBox="0 0 512.01 448.01"><defs><style>.cls-1{fill:#333;}</style></defs><title>icon-vimeo2</title><path class="cls-1" d="M437.27,32.11c-71-2.58-119,38.12-144.26,121.47a92,92,0,0,1,37.91-8.43c90,0-20.71,174-48.27,174-32.47,0-52-155.4-58.61-197.83q-13.78-88.48-73.53-82.71Q125.25,41,74.69,85.12,37.88,118.89,0,152.53l24.09,31.41q34.39-24.39,40.12-24.41c66,0,61.61,320.47,166,320.47,100.31,0,276.86-245.78,281.26-344.3l.28-.21C514.65,68,490,33.41,437.27,32.11Z" transform="translate(0 -31.99)"/></svg>