<svg id="Capa_1" data-name="Capa 1" xmlns="http://www.w3.org/2000/svg" viewBox="0 0 489.14 422.44"><defs><style>.cls-1{fill:#333;}</style></defs><title>icon-home</title><rect class="cls-1" x="341.33" y="34.07" width="81.29" height="177.15" rx="19.01"/><path class="cls-1" d="M256,44.78a22.26,22.26,0,0,0-15.81,6.6L16,247.05a11.12,11.12,0,0,0,6.6,20.07H78.13V445a22.24,22.24,0,0,0,22.24,22.24H189.3A22.24,22.24,0,0,0,211.53,445V311.58h88.94V445a22.24,22.24,0,0,0,22.23,22.24h88.93A22.24,22.24,0,0,0,433.87,445V267.12h55.58a11.12,11.12,0,0,0,6.6-20.07L271.94,51.51a.8.8,0,0,1-.13-.13A22.26,22.26,0,0,0,256,44.78Z" transform="translate(-11.43 -44.78)"/></svg>