<svg id="Capa_1" data-name="Capa 1" xmlns="http://www.w3.org/2000/svg" viewBox="0 0 552.77 504.94"><defs><style>.cls-1{fill:#2867b2;}</style></defs><title>icon-linkedin</title><path class="cls-1" d="M18,528.85H89.81a17.94,17.94,0,0,0,18-18V196.8a18,18,0,0,0-18-18H18A17.94,17.94,0,0,0,0,196.8V510.9A17.94,17.94,0,0,0,18,528.85Z" transform="translate(0 -23.92)"/><path class="cls-1" d="M18,123.63H89.81a18,18,0,0,0,18-17.95V41.87a18,18,0,0,0-18-17.95H18A17.94,17.94,0,0,0,0,41.87v63.81A18,18,0,0,0,18,123.63Z" transform="translate(0 -23.92)"/><path class="cls-1" d="M525.73,215.28q-15.15-19.93-44.67-32.79t-65.2-12.84q-72.41,0-122.7,55.27c-6.67,7.33-11.52,5.72-11.52-4.19V196.8a18,18,0,0,0-17.95-18h-64.2a18,18,0,0,0-18,18V510.9a18,18,0,0,0,18,18h71.87a18,18,0,0,0,17.95-18V401.67q0-68.26,8.24-93.58A77.28,77.28,0,0,1,328,267.44q22.24-15.33,50.24-15.34,21.86,0,37.39,10.74T438.11,293q6.9,19.37,6.9,85.33V510.9a18,18,0,0,0,17.95,18h71.86a18,18,0,0,0,17.95-18V333q0-47.17-5.94-72.48A118.68,118.68,0,0,0,525.73,215.28Z" transform="translate(0 -23.92)"/></svg>