<?xml version="1.0" encoding="utf-8"?>
<!-- Generator: Adobe Illustrator 24.0.0, SVG Export Plug-In . SVG Version: 6.00 Build 0)  -->
<svg version="1.1" id="Capa_1" xmlns="http://www.w3.org/2000/svg" xmlns:xlink="http://www.w3.org/1999/xlink" x="0px" y="0px"
	 viewBox="0 0 552.8 504.9" style="enable-background:new 0 0 552.8 504.9;" xml:space="preserve">
<style type="text/css">
	.st0{fill:#333333;}
</style>
<title>icon-linkedin</title>
<path class="st0" d="M18,504.9h71.8c9.9,0,18-8,18-17.9c0,0,0-0.1,0-0.1v-314c0-9.9-8.1-18-18-18H18c-9.9,0-18,8-18,17.9
	c0,0,0,0.1,0,0.1V487C0,496.9,8,504.9,18,504.9C18,504.9,18,504.9,18,504.9z"/>
<path class="st0" d="M18,99.7h71.8c9.9,0,18-8,18-18V17.9c0-9.9-8.1-18-18-18H18C8.1,0,0,8,0,17.9c0,0,0,0,0,0.1v63.8
	C0,91.7,8.1,99.7,18,99.7z"/>
<path class="st0" d="M525.7,191.4c-10.1-13.3-25-24.2-44.7-32.8s-41.4-12.9-65.2-12.8c-48.3,0-89.2,18.4-122.7,55.3
	c-6.7,7.3-11.5,5.7-11.5-4.2v-23.9c0-9.9-8-18-18-18h-64.2c-9.9,0-18,8.1-18,18V487c0,9.9,8.1,18,18,18c0,0,0,0,0,0h71.9
	c9.9,0,18-8.1,18-18V377.8c0-45.5,2.7-76.7,8.2-93.6c5.3-16.6,16-30.9,30.5-40.7c14.8-10.2,31.6-15.3,50.2-15.3
	c14.6,0,27,3.6,37.4,10.7c10.4,7.2,17.8,17.2,22.5,30.2c4.6,12.9,6.9,41.4,6.9,85.3V487c0,9.9,8,18,18,18h71.9c9.9,0,18-8.1,18-18
	V309.1c0-31.4-2-55.6-5.9-72.5C543.1,220.2,535.9,204.8,525.7,191.4z"/>
</svg>
