<svg id="Layer_1" data-name="Layer 1" xmlns="http://www.w3.org/2000/svg" viewBox="0 0 512 391.52"><defs><style>.cls-1{fill:#eee;}.cls-1,.cls-2,.cls-4{stroke:#eee;stroke-miterlimit:10;}.cls-2{fill:#e2e2e2;}.cls-3{fill:#d44638;}.cls-4{fill:#a0a0a0;opacity:0.4;}.cls-5{fill:#b23121;}</style></defs><title>icon-email</title><polygon class="cls-1" points="484.97 62.33 452.29 390.53 59.71 390.53 33.38 68.68 256 193.32 484.97 62.33"/><polygon class="cls-1" points="473.89 0.5 256 205.18 38.11 0.5 256 0.5 473.89 0.5"/><polygon class="cls-2" points="256 238.08 59.71 390.53 44.45 43.44 256 238.08"/><path class="cls-3" d="M59.71,155.49V451H24.14A24.14,24.14,0,0,1,0,426.88V112L39,113Z" transform="translate(0 -60.48)"/><polygon class="cls-4" points="59.71 95.01 333.71 390.54 477.29 390.53 457.73 51.48 279.27 188.25 67.93 95.01 59.71 95.01"/><path class="cls-5" d="M512,112V426.88A24.14,24.14,0,0,1,487.85,451H452.29V155.49L472,109Z" transform="translate(0 -60.48)"/><path class="cls-3" d="M512,85.12V112l-59.71,43.52L256,298.56,59.71,155.49,0,112V85.12A24.14,24.14,0,0,1,24.14,61h14L256,219.79,473.89,61h14A24.14,24.14,0,0,1,512,85.12Z" transform="translate(0 -60.48)"/><polygon class="cls-5" points="59.71 95.01 0 56.69 0 51.48 59.71 95.01"/></svg>