<svg xmlns="http://www.w3.org/2000/svg" xmlns:xlink="http://www.w3.org/1999/xlink" viewBox="0 0 338.85 338.69"><defs><style>.cls-1{fill:#fff;}.cls-2{fill:#f4f4f4;}.cls-3{fill:url(#radial-gradient);}.cls-4{fill:#939393;}.cls-5{fill:#333;}</style><radialGradient id="radial-gradient" cx="236.38" cy="508.91" r="14.31" gradientTransform="translate(94.21 -417.09) rotate(15.99)" gradientUnits="userSpaceOnUse"><stop offset="0" stop-color="#730001"/><stop offset="0.36" stop-color="#61090a"/><stop offset="1" stop-color="#461617"/></radialGradient></defs><title>Asset 1</title><g id="Layer_2" data-name="Layer 2"><g id="logo-design"><g id="circle-bg"><path d="M338.85,169.32A169.43,169.43,0,0,0,0,169C-.21,262.67,75.9,338.8,169.61,338.69,263.12,338.59,338.88,262.77,338.85,169.32Z"/><path class="cls-1" d="M338.85,169.32c0,93.45-75.73,169.27-169.24,169.37C75.9,338.8-.21,262.67,0,169a169.43,169.43,0,0,1,338.85.29ZM81.66,34.11c-4.6,3-9.46,5.61-13.74,9-3.39,2.69-6.08,6.27-9.07,9.45L42.59,68.7a52.4,52.4,0,0,0-3.75,4.15c-29.55,40.78-39.27,85.83-28.21,135,6.32,28.1,19.24,52.92,39.51,73.66l8,8,23.48,17.75-.23-.18a45.17,45.17,0,0,0,5.17,4.15c33.41,19.63,69.58,27.11,107.58,20.6,62.7-10.74,107-46.22,128.48-106.12,21.63-60.36,9.58-116-32.44-164.51-6.85-7.91-15.85-13.94-23.85-20.83l.22.19c-1.63-1.51-3.07-3.3-4.91-4.48q-84-53.76-172.37-7.52c-2.84,1.49-5.27,3.78-7.88,5.7Z"/><path class="cls-2" d="M58.18,289.54l-8-8c-1-1.75-1.68-3.71-2.94-5.21C-2.49,217.45-5.4,136.4,39.94,74.09a34.57,34.57,0,0,0,2.65-5.39L58.85,52.55,81.66,34.11l-.23.18c2-.93,4.15-1.74,6.12-2.82q89.07-48.34,174.17,6.64a49.47,49.47,0,0,0,4.87,2.48l-.22-.19a57.43,57.43,0,0,0,4.2,4.34c46.74,39.6,67.1,90,58.35,150.51C313.67,300.57,200.08,361.83,103.2,318c-7.38-3.34-14.52-7.22-21.77-10.85l.23.18Z"/><path d="M81.43,307.11c7.25,3.63,14.39,7.51,21.77,10.85,96.88,43.87,210.47-17.39,225.72-122.71,8.75-60.47-11.61-110.91-58.35-150.51a57.43,57.43,0,0,1-4.2-4.34c8,6.89,17,12.92,23.85,20.83,42,48.54,54.07,104.15,32.44,164.51-21.45,59.9-65.78,95.38-128.48,106.12-38,6.51-74.17-1-107.58-20.6A45.17,45.17,0,0,1,81.43,307.11Z"/><path d="M42.59,68.7a34.57,34.57,0,0,1-2.65,5.39C-5.4,136.4-2.49,217.45,47.2,276.29c1.26,1.5,2,3.46,2.94,5.21C29.87,260.76,17,235.94,10.63,207.84c-11.06-49.16-1.34-94.21,28.21-135A52.4,52.4,0,0,1,42.59,68.7Z"/><path d="M266.59,40.59a49.47,49.47,0,0,1-4.87-2.48Q176.59-16.84,87.55,31.47c-2,1.08-4.08,1.89-6.12,2.82,2.61-1.92,5-4.21,7.88-5.7q88.33-46.18,172.37,7.52C263.52,37.29,265,39.08,266.59,40.59Z"/><path d="M81.66,34.11,58.85,52.55c3-3.18,5.68-6.76,9.07-9.45C72.2,39.72,77.06,37.08,81.66,34.11Z"/><path d="M58.18,289.54l23.48,17.75Z"/></g><path id="crown" class="cls-3" d="M178.16,148.15l-11.47-3.29a.48.48,0,0,1-.35-.48l.83-18.67a.48.48,0,0,1,.89-.22l7.65,13.15a.48.48,0,0,0,.82,0l7.34-12.11a.48.48,0,0,1,.89.25L184.57,141a.48.48,0,0,0,.7.43l13.46-7.11a.48.48,0,0,1,.64.66l-9.19,16.28a.48.48,0,0,1-.55.22l-11.47-3.28"/><g id="last-name"><path class="cls-4" d="M94.2,183.88c-3,.32-3.9.73-5.62,5-1.4,3.49-6.07,14.73-9.42,23.25h-2.5c-1.27-3.54-7.16-19.08-9.06-23.88-1.4-3.4-2-4.12-4.94-4.4v-1.67H76.48l0,1.67c-3.31.46-3.31.78-2.59,2.68,1.41,3.8,4.81,13.14,6.35,17.12,2.72-6.47,5.16-12.64,6.2-15.58,1.14-3.13.82-3.81-3-4.22v-1.67H94.2Z"/><path class="cls-4" d="M103.67,211.66V210c3.45-.31,3.86-.59,3.86-4.39V188.32c0-3.8-.46-4.16-3.86-4.44v-1.67h14v1.67c-3.39.32-3.85.64-3.85,4.44v17.27c0,3.76.41,4,3.85,4.39v1.68Z"/><path class="cls-4" d="M157.28,203.87a64.18,64.18,0,0,1-2.54,7.29,39,39,0,0,1-8.34,1.18c-12.18,0-17.21-7.84-17.21-15,0-9.38,7.16-15.73,18-15.73a48.42,48.42,0,0,1,8.56,1.09c.23,2.13.55,5.48.86,7.48l-1.81.31c-1-3.53-2.31-5.21-4.71-6.16a11.5,11.5,0,0,0-3.94-.63c-6.57,0-9.88,5.48-9.88,12.59,0,8.3,4.26,13.91,10.47,13.91,3.8,0,6.34-2,8.79-7Z"/><path class="cls-4" d="M193.8,190.05a13.77,13.77,0,0,0-1.94-4.44c-.82-1-1.18-1.32-3.86-1.32h-2.9v21.3c0,3.8.46,4.08,4.49,4.39v1.68h-15V210c3.85-.31,4.26-.59,4.26-4.39v-21.3H176c-2.53,0-3.26.41-4.12,1.5a17.43,17.43,0,0,0-1.86,4.3h-1.72c.32-3.31.63-6.84.73-9h1.35c.68,1.05,1.23,1.14,2.59,1.14h18.12a3,3,0,0,0,2.63-1.14h1.31c.05,1.91.23,5.9.46,8.84Z"/><path class="cls-4" d="M222.22,181.57c8.38,0,15.22,6.12,15.22,15.05,0,9.65-6.88,15.72-15.45,15.72-9.06,0-15.63-6.62-15.63-15.36C206.36,189.23,211.89,181.57,222.22,181.57Zm-.68,2c-4.62,0-8,4.53-8,12.55,0,7.66,3,14.23,9.15,14.23,4.31,0,7.66-4.17,7.66-12.46C230.33,188.91,226.8,183.57,221.54,183.57Z"/><path class="cls-4" d="M277.46,211.93c-.27,0-.82,0-1.36,0-5.76-.28-7.43-1.5-8.79-3.4a81.67,81.67,0,0,1-4.67-8,2.55,2.55,0,0,0-2.76-1.49L259,199v6.62c0,3.67.45,4,3.85,4.39v1.68H249V210c3.44-.36,3.85-.72,3.85-4.39V188.23c0-3.57-.45-4.07-3.85-4.35v-1.67H262.1c4,0,6.34.45,8.2,1.72a6.93,6.93,0,0,1,3,6c0,4-2.68,6.16-5.67,7.34.68,1.36,2.45,4.3,3.81,6.38a36.1,36.1,0,0,0,3.44,4.72,5.46,5.46,0,0,0,2.86,2Zm-17.27-14.81a6.7,6.7,0,0,0,4.45-1.18,6.46,6.46,0,0,0,2.13-5.3c0-4.81-2.77-6.53-5.31-6.53-1.22,0-1.81.18-2.08.45s-.41.82-.41,1.73v10.83Z"/></g><g id="text"><path class="cls-5" d="M76.42,124c-5,11.19-10,22.42-14.53,33.81-1,2.38-4.94,9.26-2.4,11.74,3.58,3.5,5.08-4.23,5.72-6.08a47.45,47.45,0,0,1,12.17-19.15,42.35,42.35,0,0,1,13.19-8.3C93.28,135,104.5,130.38,107,134c2,2.87-9,7.92-11.21,9.1-1.93,1.06-4.57,2-6.2,3.5-2.74,2.55-1,6.48,0,9.49,3.12,8.78,9,15.71,19.08,13.49,8.19-1.8,15.93-7,22.2-12.43l-3.39-3.39c-2.92,3.3-6.59,7.08-8.22,11.22-3,7.62,6.46,4.54,10,2.85,1.79-.85,1.39-.72,3.18-.11,1.36.46,2.65,1.16,4,1.63a29.9,29.9,0,0,0,10.6,1.66,23.9,23.9,0,0,0,12.1-3.82c2.43-1.59,5.17-5.87,8.15-6.3l-2.34-.62c-1.3-1.25-2.43,3.58-2.1,5.08a4.17,4.17,0,0,0,3.83,3.3c3.18.46,6.74-1.27,9.48-2.69.47-.25,4.86-2.8,4.07-3.18.05,0-1.28,3.49-1.37,3.73-4.49,12.32-9.27,24.83-12.13,37.66-.54,2.4-1.55,5.74-.83,8.25.67,2.32,3,3.18,4.62,1.06.94-1.23,1.26-3.46,1.78-4.88a83.56,83.56,0,0,1,5-10.88c8.63-15.85,21.35-29,35.31-40.28l-3.77-2.91c-2.19,3.61-4.79,8.15-5,12.45-.36,8.07,8.51,5.06,12.82,2.83a130.86,130.86,0,0,0,14-8.21c.64-.44,1.26-1,1.92-1.37,1-.65.63-.31.32-.53.52.37,1,1.81,1.35,2.37a18,18,0,0,0,12.58,8c11.78,1.68,23.49-6,32.48-12.58,2.47-1.8.08-6-2.42-4.15-8.21,6-20.92,15.15-31.86,11.43a13.06,13.06,0,0,1-6-4.28c-1.4-1.77-2-4.56-4.25-5.46-3.09-1.26-6.41,2.35-8.79,3.86-4.81,3.06-10.66,7.39-16.26,8.64-1.52.35-1.22.59-1-1.06a16.73,16.73,0,0,1,1.5-4.35,47,47,0,0,1,2.74-5.21c1.51-2.48-1.76-4.53-3.77-2.9-15.46,12.48-29.63,27.52-38.29,45.61-1.45,3-4.3,7.66-4.45,11.11,0,.11-.16.3-.15.42,0-.47,4,.73,4.27.38-.19.26-.17,0,0-.54.81-2.54.77-5.79,1.46-8.46,2.25-8.74,5.23-17.31,8.22-25.81,1.27-3.64,9.08-17.57,1.67-18.81-1.65-.27-2.82.6-4.14,1.41s-7.74,5.47-9.2,4.41.71-2.2.86-4a3.1,3.1,0,0,0-1.61-3.27c-2.1-1.08-4.35.79-5.92,2-4.47,3.54-7.68,7-13.72,7.6a25.77,25.77,0,0,1-12.71-2.25c-3-1.32-4.58-2.41-7.74-.76-1.33.69-3.2,1.3-4.39,2-1.77,0-2,.4-.73,1.24.41,1,.71,1.17.9.64.42-.08,1.93-3.18,2.35-3.75a78.74,78.74,0,0,1,5-6.14,2.4,2.4,0,0,0-3.39-3.39c-7.52,6.52-23.64,18.1-30.9,6.16a31.08,31.08,0,0,1-3.19-7.7c-.69-2.45-1.08-1.76,1.24-3,3.45-1.88,7-3.65,10.25-5.82,3-2,6.75-4,7.2-8,.41-3.68-2.55-6-5.85-6.76-6.15-1.39-13.34,1.23-18.86,3.63a46.63,46.63,0,0,0-16.56,12,52.5,52.5,0,0,0-8.76,14.17c-.76,1.8-1.43,3.62-2,5.48a7.84,7.84,0,0,0-.65,2.1c.08,1.81-1.65-.67,1.8-.49l2.07,1.19c.89,1.31-.24,1.2.35.51a6.6,6.6,0,0,0,.53-1.75c.57-1.74,1.25-3.44,1.92-5.15,1.9-4.86,4-9.67,6-14.47q4.17-9.7,8.5-19.35c1.25-2.8-2.88-5.24-4.15-2.43Z"/></g><rect id="overlap" class="cls-4" x="171.73" y="182.26" width="7.03" height="2.06"/></g></g></svg>