<svg xmlns="http://www.w3.org/2000/svg" xmlns:xlink="http://www.w3.org/1999/xlink" viewBox="0 0 221.75 91.88"><defs><style>.cls-1{fill:url(#radial-gradient);}.cls-2{fill:#939393;}.cls-3{fill:#333;}</style><radialGradient id="radial-gradient" cx="177.72" cy="386.12" r="14.31" gradientTransform="translate(58.12 -405.69) rotate(15.99)" gradientUnits="userSpaceOnUse"><stop offset="0" stop-color="#730001"/><stop offset="0.36" stop-color="#61090a"/><stop offset="1" stop-color="#461617"/></radialGradient></defs><title>Asset 2</title><g id="Layer_2" data-name="Layer 2"><g id="logo-design"><path id="crown" class="cls-1" d="M119.5,25.36,108,22.08a.5.5,0,0,1-.34-.49l.82-18.67a.48.48,0,0,1,.89-.22l7.65,13.15a.47.47,0,0,0,.82,0l7.34-12.11a.48.48,0,0,1,.89.26l-.19,14.15a.48.48,0,0,0,.7.43l13.46-7.1a.48.48,0,0,1,.64.66l-9.19,16.27a.49.49,0,0,1-.55.23L119.5,25.36"/><g id="last-name"><path class="cls-2" d="M35.54,61.1c-3,.32-3.9.72-5.62,5-1.4,3.49-6.07,14.72-9.42,23.24H18c-1.26-3.53-7.15-19.07-9.06-23.88C7.54,62.1,7,61.37,4,61.1V59.42H17.82l0,1.68c-3.31.45-3.31.77-2.59,2.67C16.6,67.58,20,76.91,21.54,80.9c2.72-6.48,5.16-12.64,6.21-15.59,1.13-3.12.81-3.8-3-4.21V59.42H35.54Z"/><path class="cls-2" d="M45,88.87V87.2c3.45-.32,3.86-.59,3.86-4.4V65.54c0-3.81-.46-4.17-3.86-4.44V59.42H59V61.1c-3.4.32-3.86.63-3.86,4.44V82.8c0,3.76.41,4,3.86,4.4v1.67Z"/><path class="cls-2" d="M98.62,81.08a62.48,62.48,0,0,1-2.54,7.3,39.11,39.11,0,0,1-8.34,1.17c-12.18,0-17.21-7.84-17.21-15,0-9.38,7.16-15.72,18-15.72a47.45,47.45,0,0,1,8.56,1.09c.23,2.13.55,5.48.87,7.47l-1.82.32c-1-3.54-2.31-5.21-4.71-6.16a11.27,11.27,0,0,0-3.94-.64c-6.57,0-9.88,5.48-9.88,12.6,0,8.29,4.26,13.91,10.47,13.91,3.8,0,6.34-2,8.79-7Z"/><path class="cls-2" d="M135.14,67.26a14,14,0,0,0-1.94-4.44c-.82-1-1.18-1.31-3.86-1.31h-2.89V82.8c0,3.81.45,4.08,4.48,4.4v1.67h-15V87.2c3.85-.32,4.26-.59,4.26-4.4V61.51h-2.77c-2.53,0-3.26.41-4.12,1.49a17.35,17.35,0,0,0-1.86,4.31h-1.72c.32-3.31.64-6.85.73-9h1.36c.67,1,1.22,1.13,2.58,1.13h18.12a3,3,0,0,0,2.63-1.13h1.31c.05,1.9.23,5.89.46,8.84Z"/><path class="cls-2" d="M163.56,58.79c8.38,0,15.22,6.12,15.22,15,0,9.65-6.88,15.72-15.45,15.72-9.06,0-15.63-6.61-15.63-15.36C147.7,66.45,153.23,58.79,163.56,58.79Zm-.68,2c-4.62,0-8,4.53-8,12.55,0,7.66,3,14.23,9.15,14.23,4.31,0,7.66-4.17,7.66-12.46C171.67,66.13,168.14,60.78,162.88,60.78Z"/><path class="cls-2" d="M218.8,89.15c-.27,0-.82,0-1.36-.05-5.75-.27-7.43-1.49-8.79-3.4a81.51,81.51,0,0,1-4.67-8,2.54,2.54,0,0,0-2.76-1.5l-.91,0V82.8c0,3.67.46,4,3.85,4.4v1.67H190.3V87.2c3.44-.36,3.85-.73,3.85-4.4V65.45c0-3.58-.45-4.08-3.85-4.35V59.42h13.14c4,0,6.34.46,8.2,1.72a6.94,6.94,0,0,1,3,6c0,4-2.68,6.16-5.67,7.34.68,1.36,2.45,4.31,3.81,6.39a36.52,36.52,0,0,0,3.44,4.71,5.54,5.54,0,0,0,2.86,2ZM201.54,74.33A6.68,6.68,0,0,0,206,73.15a6.46,6.46,0,0,0,2.13-5.3c0-4.8-2.77-6.52-5.31-6.52-1.22,0-1.81.18-2.08.45s-.41.81-.41,1.72V74.33Z"/></g><g id="text"><path class="cls-3" d="M17.76,1.25c-5,11.18-10,22.41-14.53,33.8-1,2.39-4.93,9.26-2.4,11.74,3.58,3.5,5.08-4.23,5.72-6.07A47.48,47.48,0,0,1,18.72,21.56a42.5,42.5,0,0,1,13.19-8.29c2.71-1.09,13.93-5.68,16.42-2.08,2,2.88-9,7.92-11.21,9.11-1.93,1.05-4.57,2-6.2,3.5-2.74,2.55-1,6.47,0,9.48C34.07,42.07,40,49,50,46.78c8.19-1.81,15.93-7,22.2-12.43L68.84,31c-2.91,3.31-6.59,7.08-8.22,11.22-3,7.62,6.46,4.55,10,2.86,1.79-.86,1.39-.73,3.18-.12,1.36.47,2.65,1.17,4,1.63a29.67,29.67,0,0,0,10.6,1.66,23.79,23.79,0,0,0,12.1-3.81c2.43-1.6,5.17-5.87,8.15-6.31l-2.34-.62c-1.3-1.24-2.42,3.59-2.1,5.09a4.15,4.15,0,0,0,3.83,3.29c3.19.46,6.74-1.26,9.48-2.69.47-.24,4.86-2.8,4.07-3.18.05,0-1.28,3.5-1.37,3.73C115.74,56,111,68.54,108.1,81.36c-.54,2.41-1.55,5.75-.83,8.25.68,2.32,3,3.19,4.62,1.06.94-1.23,1.26-3.46,1.78-4.88a84,84,0,0,1,5-10.87C127.3,59.07,140,45.9,154,34.63l-3.77-2.9c-2.19,3.6-4.79,8.15-5,12.45-.36,8.06,8.51,5,12.82,2.83a132.56,132.56,0,0,0,14-8.21c.65-.44,1.26-.95,1.93-1.37,1-.66.62-.31.32-.54.51.38,1,1.81,1.34,2.38a18.05,18.05,0,0,0,12.58,8c11.78,1.67,23.49-6,32.48-12.59,2.47-1.8.08-6-2.42-4.14-8.21,6-20.92,15.14-31.86,11.42a12.92,12.92,0,0,1-6-4.28c-1.4-1.76-2-4.55-4.25-5.46-3.09-1.25-6.4,2.36-8.79,3.87-4.81,3-10.66,7.38-16.25,8.64-1.53.34-1.23.59-1-1.07a16.79,16.79,0,0,1,1.5-4.34,46.14,46.14,0,0,1,2.74-5.21c1.51-2.48-1.76-4.53-3.77-2.91C135.12,43.73,121,58.76,112.29,76.86c-1.45,3-4.3,7.65-4.45,11.11,0,.1-.16.3-.15.41,0-.46,4,.73,4.27.39-.19.26-.17,0,0-.55.81-2.53.77-5.79,1.46-8.45,2.25-8.74,5.23-17.31,8.22-25.82,1.27-3.64,9.08-17.56,1.67-18.8-1.65-.28-2.82.6-4.14,1.4S111.44,42,110,41s.7-2.2.85-4a3.07,3.07,0,0,0-1.61-3.26c-2.1-1.08-4.35.79-5.92,2-4.47,3.53-7.68,7-13.72,7.59a25.66,25.66,0,0,1-12.71-2.25c-3-1.31-4.58-2.4-7.74-.76-1.33.69-3.2,1.31-4.39,2-1.77,0-2,.39-.73,1.24.41.95.71,1.17.9.64.42-.08,1.93-3.18,2.35-3.76a78.59,78.59,0,0,1,5-6.13A2.4,2.4,0,0,0,68.84,31c-7.52,6.52-23.64,18.11-30.9,6.17a31.31,31.31,0,0,1-3.19-7.71c-.69-2.44-1.08-1.76,1.24-3,3.45-1.89,7-3.65,10.25-5.83,3-2,6.75-4,7.2-8,.41-3.68-2.55-6-5.85-6.77C41.44,4.41,34.26,7,28.73,9.43a46.51,46.51,0,0,0-16.56,12A52.44,52.44,0,0,0,3.41,35.6c-.76,1.8-1.43,3.63-2,5.49a7.62,7.62,0,0,0-.65,2.1c.08,1.8-1.65-.68,1.8-.5L4.6,43.88c.89,1.31-.24,1.2.35.51a6.53,6.53,0,0,0,.53-1.74c.57-1.74,1.25-3.45,1.92-5.15,1.9-4.87,3.95-9.68,6-14.47q4.17-9.72,8.5-19.36C23.16.88,19-1.57,17.76,1.25Z"/></g><rect id="overlap" class="cls-2" x="113.07" y="59.47" width="7.03" height="2.06"/></g></g></svg>